<svg width="449" height="102" viewBox="0 0 449 102" fill="none" xmlns="http://www.w3.org/2000/svg">
<path d="M2.00015 1.84912C92.8527 9.65667 183.975 4.27628 275.024 4.89798C329.44 5.26954 386.066 3.91057 440.075 11.675C474.955 16.6895 369.842 18.5188 334.605 18.8975C259.368 19.706 184.077 21.4591 108.839 21.6074C95.0827 21.6345 54.5348 18.1066 67.5782 22.479C76.1527 25.3533 89.5967 25.1117 97.9032 25.8289C136.884 29.1946 175.906 31.9314 214.94 34.5835C241.302 36.3746 271.51 34.7626 297.303 41.0829C313.626 45.0825 261.085 50.2987 258.217 50.4688C238.772 51.6218 219.109 53.0315 199.666 51.3646C189.758 50.5152 217.42 53.838 219.767 54.0697C222.697 54.3589 257.465 55.9866 256.931 59.6354C256.069 65.5202 239.622 68.286 235.407 70.0842C223.863 75.0084 246.786 75.5714 240.895 82.9513C233.381 92.3655 231.549 92.1134 241.401 100.479" stroke="#FF9A3E" stroke-width="3" stroke-linecap="round"/>
</svg>
